<mxfile host="app.diagrams.net" modified="2023-05-18T13:54:45.299Z" agent="Mozilla/5.0 (Windows NT 10.0; Win64; x64) AppleWebKit/537.36 (KHTML, like Gecko) Chrome/113.0.0.0 Safari/537.36" etag="K6M8luaOUKjwKMq3yEK5" version="21.2.9" type="github" pages="2">
  <diagram id="C5RBs43oDa-KdzZeNtuy" name="Old">
    <mxGraphModel dx="2333" dy="2371" grid="1" gridSize="10" guides="1" tooltips="1" connect="1" arrows="1" fold="1" page="1" pageScale="1" pageWidth="827" pageHeight="1169" math="0" shadow="0">
      <root>
        <mxCell id="WIyWlLk6GJQsqaUBKTNV-0" />
        <mxCell id="WIyWlLk6GJQsqaUBKTNV-1" parent="WIyWlLk6GJQsqaUBKTNV-0" />
        <mxCell id="yxe5Q3Sf5L_R0xSFJ02G-0" value="L&#39;utilisateur saisie dans le champs de recherche" style="rounded=1;whiteSpace=wrap;html=1;" parent="WIyWlLk6GJQsqaUBKTNV-1" vertex="1">
          <mxGeometry x="350" y="10" width="120" height="60" as="geometry" />
        </mxCell>
        <mxCell id="yxe5Q3Sf5L_R0xSFJ02G-5" style="edgeStyle=orthogonalEdgeStyle;rounded=0;orthogonalLoop=1;jettySize=auto;html=1;entryX=1;entryY=0.5;entryDx=0;entryDy=0;" parent="WIyWlLk6GJQsqaUBKTNV-1" source="yxe5Q3Sf5L_R0xSFJ02G-1" target="cdySZ4cRYepUSvJREWyh-46" edge="1">
          <mxGeometry relative="1" as="geometry">
            <mxPoint x="170" y="1020" as="targetPoint" />
            <Array as="points">
              <mxPoint x="240" y="155" />
              <mxPoint x="240" y="155" />
            </Array>
          </mxGeometry>
        </mxCell>
        <mxCell id="yxe5Q3Sf5L_R0xSFJ02G-7" value="Non" style="edgeLabel;html=1;align=center;verticalAlign=middle;resizable=0;points=[];" parent="yxe5Q3Sf5L_R0xSFJ02G-5" vertex="1" connectable="0">
          <mxGeometry x="0.2267" y="2" relative="1" as="geometry">
            <mxPoint as="offset" />
          </mxGeometry>
        </mxCell>
        <mxCell id="yxe5Q3Sf5L_R0xSFJ02G-6" style="edgeStyle=orthogonalEdgeStyle;rounded=0;orthogonalLoop=1;jettySize=auto;html=1;exitX=1;exitY=0.5;exitDx=0;exitDy=0;entryX=0.5;entryY=0;entryDx=0;entryDy=0;" parent="WIyWlLk6GJQsqaUBKTNV-1" source="yxe5Q3Sf5L_R0xSFJ02G-1" target="yxe5Q3Sf5L_R0xSFJ02G-10" edge="1">
          <mxGeometry relative="1" as="geometry">
            <mxPoint x="540" y="155" as="targetPoint" />
          </mxGeometry>
        </mxCell>
        <mxCell id="yxe5Q3Sf5L_R0xSFJ02G-8" value="Oui" style="edgeLabel;html=1;align=center;verticalAlign=middle;resizable=0;points=[];" parent="yxe5Q3Sf5L_R0xSFJ02G-6" vertex="1" connectable="0">
          <mxGeometry x="-0.28" y="-1" relative="1" as="geometry">
            <mxPoint as="offset" />
          </mxGeometry>
        </mxCell>
        <mxCell id="yxe5Q3Sf5L_R0xSFJ02G-1" value="plus que 3 caractères saisies ?" style="rhombus;whiteSpace=wrap;html=1;" parent="WIyWlLk6GJQsqaUBKTNV-1" vertex="1">
          <mxGeometry x="360" y="110" width="100" height="90" as="geometry" />
        </mxCell>
        <mxCell id="yxe5Q3Sf5L_R0xSFJ02G-2" value="" style="endArrow=classic;html=1;rounded=0;exitX=0.5;exitY=1;exitDx=0;exitDy=0;entryX=0.5;entryY=0;entryDx=0;entryDy=0;" parent="WIyWlLk6GJQsqaUBKTNV-1" source="yxe5Q3Sf5L_R0xSFJ02G-0" target="yxe5Q3Sf5L_R0xSFJ02G-1" edge="1">
          <mxGeometry width="50" height="50" relative="1" as="geometry">
            <mxPoint x="390" y="250" as="sourcePoint" />
            <mxPoint x="440" y="200" as="targetPoint" />
          </mxGeometry>
        </mxCell>
        <mxCell id="yxe5Q3Sf5L_R0xSFJ02G-14" style="edgeStyle=orthogonalEdgeStyle;rounded=0;orthogonalLoop=1;jettySize=auto;html=1;entryX=0.5;entryY=0;entryDx=0;entryDy=0;" parent="WIyWlLk6GJQsqaUBKTNV-1" source="yxe5Q3Sf5L_R0xSFJ02G-9" target="yxe5Q3Sf5L_R0xSFJ02G-13" edge="1">
          <mxGeometry relative="1" as="geometry">
            <Array as="points">
              <mxPoint x="740" y="370" />
            </Array>
          </mxGeometry>
        </mxCell>
        <mxCell id="yxe5Q3Sf5L_R0xSFJ02G-20" value="Oui" style="edgeLabel;html=1;align=center;verticalAlign=middle;resizable=0;points=[];" parent="yxe5Q3Sf5L_R0xSFJ02G-14" vertex="1" connectable="0">
          <mxGeometry x="0.0642" y="-4" relative="1" as="geometry">
            <mxPoint as="offset" />
          </mxGeometry>
        </mxCell>
        <mxCell id="yxe5Q3Sf5L_R0xSFJ02G-17" style="edgeStyle=orthogonalEdgeStyle;rounded=0;orthogonalLoop=1;jettySize=auto;html=1;entryX=0.5;entryY=0;entryDx=0;entryDy=0;exitX=0.5;exitY=1;exitDx=0;exitDy=0;" parent="WIyWlLk6GJQsqaUBKTNV-1" source="yxe5Q3Sf5L_R0xSFJ02G-9" target="yxe5Q3Sf5L_R0xSFJ02G-22" edge="1">
          <mxGeometry relative="1" as="geometry" />
        </mxCell>
        <mxCell id="yxe5Q3Sf5L_R0xSFJ02G-18" value="Non" style="edgeLabel;html=1;align=center;verticalAlign=middle;resizable=0;points=[];" parent="yxe5Q3Sf5L_R0xSFJ02G-17" vertex="1" connectable="0">
          <mxGeometry x="0.1925" y="-1" relative="1" as="geometry">
            <mxPoint as="offset" />
          </mxGeometry>
        </mxCell>
        <mxCell id="yxe5Q3Sf5L_R0xSFJ02G-9" value="Le titre contient les caractères saisis ?" style="rhombus;whiteSpace=wrap;html=1;" parent="WIyWlLk6GJQsqaUBKTNV-1" vertex="1">
          <mxGeometry x="490" y="325" width="100" height="90" as="geometry" />
        </mxCell>
        <mxCell id="yxe5Q3Sf5L_R0xSFJ02G-12" style="edgeStyle=orthogonalEdgeStyle;rounded=0;orthogonalLoop=1;jettySize=auto;html=1;" parent="WIyWlLk6GJQsqaUBKTNV-1" source="yxe5Q3Sf5L_R0xSFJ02G-10" target="yxe5Q3Sf5L_R0xSFJ02G-9" edge="1">
          <mxGeometry relative="1" as="geometry" />
        </mxCell>
        <mxCell id="yxe5Q3Sf5L_R0xSFJ02G-10" value="Aller à la recette suivante" style="rounded=1;whiteSpace=wrap;html=1;" parent="WIyWlLk6GJQsqaUBKTNV-1" vertex="1">
          <mxGeometry x="480" y="230" width="120" height="60" as="geometry" />
        </mxCell>
        <mxCell id="yxe5Q3Sf5L_R0xSFJ02G-21" style="edgeStyle=orthogonalEdgeStyle;rounded=0;orthogonalLoop=1;jettySize=auto;html=1;entryX=1;entryY=0.5;entryDx=0;entryDy=0;" parent="WIyWlLk6GJQsqaUBKTNV-1" source="yxe5Q3Sf5L_R0xSFJ02G-13" target="yxe5Q3Sf5L_R0xSFJ02G-10" edge="1">
          <mxGeometry relative="1" as="geometry">
            <Array as="points">
              <mxPoint x="780" y="445" />
              <mxPoint x="780" y="260" />
            </Array>
          </mxGeometry>
        </mxCell>
        <mxCell id="cdySZ4cRYepUSvJREWyh-44" style="edgeStyle=orthogonalEdgeStyle;rounded=0;orthogonalLoop=1;jettySize=auto;html=1;entryX=0.5;entryY=0;entryDx=0;entryDy=0;" parent="WIyWlLk6GJQsqaUBKTNV-1" source="yxe5Q3Sf5L_R0xSFJ02G-13" target="cdySZ4cRYepUSvJREWyh-45" edge="1">
          <mxGeometry relative="1" as="geometry">
            <mxPoint x="740" y="1220" as="targetPoint" />
          </mxGeometry>
        </mxCell>
        <mxCell id="yxe5Q3Sf5L_R0xSFJ02G-13" value="On ajoute la recette à la liste des recettes sélectionnées" style="rounded=1;whiteSpace=wrap;html=1;" parent="WIyWlLk6GJQsqaUBKTNV-1" vertex="1">
          <mxGeometry x="680" y="1010" width="120" height="60" as="geometry" />
        </mxCell>
        <mxCell id="yxe5Q3Sf5L_R0xSFJ02G-24" style="edgeStyle=orthogonalEdgeStyle;rounded=0;orthogonalLoop=1;jettySize=auto;html=1;entryX=0;entryY=0.5;entryDx=0;entryDy=0;" parent="WIyWlLk6GJQsqaUBKTNV-1" source="yxe5Q3Sf5L_R0xSFJ02G-22" target="yxe5Q3Sf5L_R0xSFJ02G-13" edge="1">
          <mxGeometry relative="1" as="geometry" />
        </mxCell>
        <mxCell id="yxe5Q3Sf5L_R0xSFJ02G-25" value="Oui" style="edgeLabel;html=1;align=center;verticalAlign=middle;resizable=0;points=[];" parent="yxe5Q3Sf5L_R0xSFJ02G-24" vertex="1" connectable="0">
          <mxGeometry x="-0.3467" relative="1" as="geometry">
            <mxPoint as="offset" />
          </mxGeometry>
        </mxCell>
        <mxCell id="yxe5Q3Sf5L_R0xSFJ02G-27" style="edgeStyle=orthogonalEdgeStyle;rounded=0;orthogonalLoop=1;jettySize=auto;html=1;entryX=0.5;entryY=0;entryDx=0;entryDy=0;" parent="WIyWlLk6GJQsqaUBKTNV-1" source="yxe5Q3Sf5L_R0xSFJ02G-22" target="yxe5Q3Sf5L_R0xSFJ02G-26" edge="1">
          <mxGeometry relative="1" as="geometry">
            <Array as="points">
              <mxPoint x="540" y="570" />
              <mxPoint x="540" y="570" />
            </Array>
          </mxGeometry>
        </mxCell>
        <mxCell id="yxe5Q3Sf5L_R0xSFJ02G-28" value="Non" style="edgeLabel;html=1;align=center;verticalAlign=middle;resizable=0;points=[];" parent="yxe5Q3Sf5L_R0xSFJ02G-27" vertex="1" connectable="0">
          <mxGeometry x="-0.2198" y="-1" relative="1" as="geometry">
            <mxPoint as="offset" />
          </mxGeometry>
        </mxCell>
        <mxCell id="yxe5Q3Sf5L_R0xSFJ02G-22" value="La description contient les caractères saisis ?" style="rhombus;whiteSpace=wrap;html=1;" parent="WIyWlLk6GJQsqaUBKTNV-1" vertex="1">
          <mxGeometry x="490" y="460" width="100" height="90" as="geometry" />
        </mxCell>
        <mxCell id="yxe5Q3Sf5L_R0xSFJ02G-30" style="edgeStyle=orthogonalEdgeStyle;rounded=0;orthogonalLoop=1;jettySize=auto;html=1;entryX=0.5;entryY=0;entryDx=0;entryDy=0;" parent="WIyWlLk6GJQsqaUBKTNV-1" source="yxe5Q3Sf5L_R0xSFJ02G-26" target="yxe5Q3Sf5L_R0xSFJ02G-29" edge="1">
          <mxGeometry relative="1" as="geometry" />
        </mxCell>
        <mxCell id="yxe5Q3Sf5L_R0xSFJ02G-26" value="Aller à l&#39;ingrédient suivant de la recette" style="rounded=1;whiteSpace=wrap;html=1;" parent="WIyWlLk6GJQsqaUBKTNV-1" vertex="1">
          <mxGeometry x="480" y="585" width="120" height="60" as="geometry" />
        </mxCell>
        <mxCell id="yxe5Q3Sf5L_R0xSFJ02G-31" style="edgeStyle=orthogonalEdgeStyle;rounded=0;orthogonalLoop=1;jettySize=auto;html=1;entryX=0;entryY=0.5;entryDx=0;entryDy=0;" parent="WIyWlLk6GJQsqaUBKTNV-1" source="yxe5Q3Sf5L_R0xSFJ02G-29" target="yxe5Q3Sf5L_R0xSFJ02G-13" edge="1">
          <mxGeometry relative="1" as="geometry">
            <Array as="points">
              <mxPoint x="610" y="735" />
              <mxPoint x="610" y="1040" />
            </Array>
          </mxGeometry>
        </mxCell>
        <mxCell id="yxe5Q3Sf5L_R0xSFJ02G-32" value="Oui" style="edgeLabel;html=1;align=center;verticalAlign=middle;resizable=0;points=[];" parent="yxe5Q3Sf5L_R0xSFJ02G-31" vertex="1" connectable="0">
          <mxGeometry x="-0.5344" y="1" relative="1" as="geometry">
            <mxPoint as="offset" />
          </mxGeometry>
        </mxCell>
        <mxCell id="yxe5Q3Sf5L_R0xSFJ02G-33" style="edgeStyle=orthogonalEdgeStyle;rounded=0;orthogonalLoop=1;jettySize=auto;html=1;entryX=0.5;entryY=0;entryDx=0;entryDy=0;" parent="WIyWlLk6GJQsqaUBKTNV-1" source="yxe5Q3Sf5L_R0xSFJ02G-29" target="yxe5Q3Sf5L_R0xSFJ02G-35" edge="1">
          <mxGeometry relative="1" as="geometry">
            <Array as="points">
              <mxPoint x="460" y="735" />
              <mxPoint x="460" y="800" />
            </Array>
          </mxGeometry>
        </mxCell>
        <mxCell id="yxe5Q3Sf5L_R0xSFJ02G-34" value="Nont" style="edgeLabel;html=1;align=center;verticalAlign=middle;resizable=0;points=[];" parent="yxe5Q3Sf5L_R0xSFJ02G-33" vertex="1" connectable="0">
          <mxGeometry x="-0.4754" relative="1" as="geometry">
            <mxPoint as="offset" />
          </mxGeometry>
        </mxCell>
        <mxCell id="yxe5Q3Sf5L_R0xSFJ02G-29" value="L&#39;ingrédient contient les caractères saisis ?" style="rhombus;whiteSpace=wrap;html=1;" parent="WIyWlLk6GJQsqaUBKTNV-1" vertex="1">
          <mxGeometry x="490" y="690" width="100" height="90" as="geometry" />
        </mxCell>
        <mxCell id="yxe5Q3Sf5L_R0xSFJ02G-36" value="oui" style="edgeStyle=orthogonalEdgeStyle;rounded=0;orthogonalLoop=1;jettySize=auto;html=1;entryX=0;entryY=0.5;entryDx=0;entryDy=0;" parent="WIyWlLk6GJQsqaUBKTNV-1" source="yxe5Q3Sf5L_R0xSFJ02G-35" target="yxe5Q3Sf5L_R0xSFJ02G-26" edge="1">
          <mxGeometry relative="1" as="geometry">
            <Array as="points">
              <mxPoint x="390" y="840" />
              <mxPoint x="390" y="615" />
            </Array>
          </mxGeometry>
        </mxCell>
        <mxCell id="yxe5Q3Sf5L_R0xSFJ02G-38" value="Non" style="edgeStyle=orthogonalEdgeStyle;rounded=0;orthogonalLoop=1;jettySize=auto;html=1;" parent="WIyWlLk6GJQsqaUBKTNV-1" source="yxe5Q3Sf5L_R0xSFJ02G-35" target="yxe5Q3Sf5L_R0xSFJ02G-37" edge="1">
          <mxGeometry relative="1" as="geometry" />
        </mxCell>
        <mxCell id="yxe5Q3Sf5L_R0xSFJ02G-35" value="Y-a-t-il encore des ingredients ?" style="rhombus;whiteSpace=wrap;html=1;" parent="WIyWlLk6GJQsqaUBKTNV-1" vertex="1">
          <mxGeometry x="500" y="800" width="80" height="80" as="geometry" />
        </mxCell>
        <mxCell id="yxe5Q3Sf5L_R0xSFJ02G-39" value="Oui" style="edgeStyle=orthogonalEdgeStyle;rounded=0;orthogonalLoop=1;jettySize=auto;html=1;entryX=0;entryY=0.5;entryDx=0;entryDy=0;" parent="WIyWlLk6GJQsqaUBKTNV-1" source="yxe5Q3Sf5L_R0xSFJ02G-37" target="yxe5Q3Sf5L_R0xSFJ02G-10" edge="1">
          <mxGeometry relative="1" as="geometry">
            <Array as="points">
              <mxPoint x="260" y="960" />
              <mxPoint x="260" y="260" />
            </Array>
          </mxGeometry>
        </mxCell>
        <mxCell id="yxe5Q3Sf5L_R0xSFJ02G-40" style="edgeStyle=orthogonalEdgeStyle;rounded=0;orthogonalLoop=1;jettySize=auto;html=1;entryX=0.5;entryY=0;entryDx=0;entryDy=0;exitX=0.5;exitY=1;exitDx=0;exitDy=0;" parent="WIyWlLk6GJQsqaUBKTNV-1" source="yxe5Q3Sf5L_R0xSFJ02G-37" target="cdySZ4cRYepUSvJREWyh-56" edge="1">
          <mxGeometry relative="1" as="geometry">
            <Array as="points">
              <mxPoint x="540" y="1050" />
              <mxPoint x="280" y="1050" />
            </Array>
          </mxGeometry>
        </mxCell>
        <mxCell id="yxe5Q3Sf5L_R0xSFJ02G-41" value="Non" style="edgeLabel;html=1;align=center;verticalAlign=middle;resizable=0;points=[];" parent="yxe5Q3Sf5L_R0xSFJ02G-40" vertex="1" connectable="0">
          <mxGeometry x="-0.7777" relative="1" as="geometry">
            <mxPoint as="offset" />
          </mxGeometry>
        </mxCell>
        <mxCell id="yxe5Q3Sf5L_R0xSFJ02G-37" value="Y-a-t-il encore des recettes ?" style="rhombus;whiteSpace=wrap;html=1;" parent="WIyWlLk6GJQsqaUBKTNV-1" vertex="1">
          <mxGeometry x="500" y="920" width="80" height="80" as="geometry" />
        </mxCell>
        <mxCell id="cdySZ4cRYepUSvJREWyh-12" style="edgeStyle=orthogonalEdgeStyle;rounded=0;orthogonalLoop=1;jettySize=auto;html=1;entryX=1;entryY=0.5;entryDx=0;entryDy=0;" parent="WIyWlLk6GJQsqaUBKTNV-1" source="cdySZ4cRYepUSvJREWyh-11" target="yxe5Q3Sf5L_R0xSFJ02G-0" edge="1">
          <mxGeometry relative="1" as="geometry">
            <Array as="points">
              <mxPoint x="850" y="40" />
              <mxPoint x="850" y="40" />
            </Array>
          </mxGeometry>
        </mxCell>
        <mxCell id="cdySZ4cRYepUSvJREWyh-37" style="edgeStyle=orthogonalEdgeStyle;rounded=0;orthogonalLoop=1;jettySize=auto;html=1;entryX=0;entryY=0.5;entryDx=0;entryDy=0;" parent="WIyWlLk6GJQsqaUBKTNV-1" source="cdySZ4cRYepUSvJREWyh-11" target="cdySZ4cRYepUSvJREWyh-16" edge="1">
          <mxGeometry relative="1" as="geometry">
            <Array as="points">
              <mxPoint x="1050" y="40" />
              <mxPoint x="1050" y="40" />
            </Array>
          </mxGeometry>
        </mxCell>
        <mxCell id="cdySZ4cRYepUSvJREWyh-11" value="Utilisateur" style="shape=umlActor;verticalLabelPosition=bottom;verticalAlign=top;html=1;outlineConnect=0;" parent="WIyWlLk6GJQsqaUBKTNV-1" vertex="1">
          <mxGeometry x="988" y="-60" width="30" height="60" as="geometry" />
        </mxCell>
        <mxCell id="cdySZ4cRYepUSvJREWyh-13" value="On met à jour la liste des recettes sélectionnées" style="rounded=1;whiteSpace=wrap;html=1;fillColor=#d5e8d4;strokeColor=#82b366;" parent="WIyWlLk6GJQsqaUBKTNV-1" vertex="1">
          <mxGeometry x="530" y="1220" width="120" height="60" as="geometry" />
        </mxCell>
        <mxCell id="cdySZ4cRYepUSvJREWyh-19" style="edgeStyle=orthogonalEdgeStyle;rounded=0;orthogonalLoop=1;jettySize=auto;html=1;entryX=0;entryY=0.5;entryDx=0;entryDy=0;" parent="WIyWlLk6GJQsqaUBKTNV-1" source="cdySZ4cRYepUSvJREWyh-16" target="cdySZ4cRYepUSvJREWyh-53" edge="1">
          <mxGeometry relative="1" as="geometry" />
        </mxCell>
        <mxCell id="cdySZ4cRYepUSvJREWyh-16" value="Sélectionne un ustensile/ingrédients/appareils (u/i/a)" style="rounded=1;whiteSpace=wrap;html=1;" parent="WIyWlLk6GJQsqaUBKTNV-1" vertex="1">
          <mxGeometry x="1150" y="10" width="190" height="60" as="geometry" />
        </mxCell>
        <mxCell id="cdySZ4cRYepUSvJREWyh-21" value="non" style="edgeStyle=orthogonalEdgeStyle;rounded=0;orthogonalLoop=1;jettySize=auto;html=1;entryX=0.5;entryY=0;entryDx=0;entryDy=0;" parent="WIyWlLk6GJQsqaUBKTNV-1" source="cdySZ4cRYepUSvJREWyh-18" target="cdySZ4cRYepUSvJREWyh-60" edge="1">
          <mxGeometry relative="1" as="geometry">
            <mxPoint x="1580" y="790" as="targetPoint" />
          </mxGeometry>
        </mxCell>
        <mxCell id="cdySZ4cRYepUSvJREWyh-23" value="oui" style="edgeStyle=orthogonalEdgeStyle;rounded=0;orthogonalLoop=1;jettySize=auto;html=1;entryX=0.5;entryY=0;entryDx=0;entryDy=0;" parent="WIyWlLk6GJQsqaUBKTNV-1" source="cdySZ4cRYepUSvJREWyh-18" target="cdySZ4cRYepUSvJREWyh-22" edge="1">
          <mxGeometry relative="1" as="geometry" />
        </mxCell>
        <mxCell id="cdySZ4cRYepUSvJREWyh-18" value="Des recettes sont déjà sélectionnées ?" style="rhombus;whiteSpace=wrap;html=1;" parent="WIyWlLk6GJQsqaUBKTNV-1" vertex="1">
          <mxGeometry x="1340" y="740" width="80" height="80" as="geometry" />
        </mxCell>
        <mxCell id="cdySZ4cRYepUSvJREWyh-25" style="edgeStyle=orthogonalEdgeStyle;rounded=0;orthogonalLoop=1;jettySize=auto;html=1;entryX=0.5;entryY=0;entryDx=0;entryDy=0;" parent="WIyWlLk6GJQsqaUBKTNV-1" source="cdySZ4cRYepUSvJREWyh-22" target="cdySZ4cRYepUSvJREWyh-24" edge="1">
          <mxGeometry relative="1" as="geometry" />
        </mxCell>
        <mxCell id="cdySZ4cRYepUSvJREWyh-22" value="Aller à la recette suivante" style="rounded=1;whiteSpace=wrap;html=1;" parent="WIyWlLk6GJQsqaUBKTNV-1" vertex="1">
          <mxGeometry x="1320" y="890" width="120" height="60" as="geometry" />
        </mxCell>
        <mxCell id="cdySZ4cRYepUSvJREWyh-28" value="oui" style="edgeStyle=orthogonalEdgeStyle;rounded=0;orthogonalLoop=1;jettySize=auto;html=1;entryX=0;entryY=0.5;entryDx=0;entryDy=0;exitX=0;exitY=0.5;exitDx=0;exitDy=0;" parent="WIyWlLk6GJQsqaUBKTNV-1" source="cdySZ4cRYepUSvJREWyh-31" target="cdySZ4cRYepUSvJREWyh-22" edge="1">
          <mxGeometry relative="1" as="geometry">
            <mxPoint x="1202" y="1043.7600000000002" as="targetPoint" />
            <Array as="points">
              <mxPoint x="1300" y="1160" />
              <mxPoint x="1300" y="920" />
            </Array>
          </mxGeometry>
        </mxCell>
        <mxCell id="cdySZ4cRYepUSvJREWyh-29" value="non" style="edgeStyle=orthogonalEdgeStyle;rounded=0;orthogonalLoop=1;jettySize=auto;html=1;entryX=0;entryY=0.5;entryDx=0;entryDy=0;" parent="WIyWlLk6GJQsqaUBKTNV-1" source="cdySZ4cRYepUSvJREWyh-24" target="cdySZ4cRYepUSvJREWyh-26" edge="1">
          <mxGeometry relative="1" as="geometry" />
        </mxCell>
        <mxCell id="cdySZ4cRYepUSvJREWyh-33" value="oui" style="edgeStyle=orthogonalEdgeStyle;rounded=0;orthogonalLoop=1;jettySize=auto;html=1;entryX=0.5;entryY=0;entryDx=0;entryDy=0;" parent="WIyWlLk6GJQsqaUBKTNV-1" source="cdySZ4cRYepUSvJREWyh-24" target="cdySZ4cRYepUSvJREWyh-31" edge="1">
          <mxGeometry relative="1" as="geometry" />
        </mxCell>
        <mxCell id="cdySZ4cRYepUSvJREWyh-24" value="L&#39;u/i/a choisi est-il présent dans la liste des u/i/a de la recette ?" style="rhombus;whiteSpace=wrap;html=1;" parent="WIyWlLk6GJQsqaUBKTNV-1" vertex="1">
          <mxGeometry x="1330" y="1000" width="100" height="90" as="geometry" />
        </mxCell>
        <mxCell id="cdySZ4cRYepUSvJREWyh-34" style="edgeStyle=orthogonalEdgeStyle;rounded=0;orthogonalLoop=1;jettySize=auto;html=1;entryX=1;entryY=0.5;entryDx=0;entryDy=0;" parent="WIyWlLk6GJQsqaUBKTNV-1" source="cdySZ4cRYepUSvJREWyh-26" target="cdySZ4cRYepUSvJREWyh-31" edge="1">
          <mxGeometry relative="1" as="geometry">
            <Array as="points">
              <mxPoint x="1570" y="1160" />
            </Array>
          </mxGeometry>
        </mxCell>
        <mxCell id="cdySZ4cRYepUSvJREWyh-26" value="Supprime la recette des recettes sélectionnées" style="rounded=1;whiteSpace=wrap;html=1;" parent="WIyWlLk6GJQsqaUBKTNV-1" vertex="1">
          <mxGeometry x="1510" y="1015" width="120" height="60" as="geometry" />
        </mxCell>
        <mxCell id="cdySZ4cRYepUSvJREWyh-36" value="non" style="edgeStyle=orthogonalEdgeStyle;rounded=0;orthogonalLoop=1;jettySize=auto;html=1;entryX=0.5;entryY=1;entryDx=0;entryDy=0;exitX=0.5;exitY=1;exitDx=0;exitDy=0;" parent="WIyWlLk6GJQsqaUBKTNV-1" source="cdySZ4cRYepUSvJREWyh-31" target="cdySZ4cRYepUSvJREWyh-13" edge="1">
          <mxGeometry relative="1" as="geometry">
            <mxPoint x="1420" y="1270" as="sourcePoint" />
            <Array as="points">
              <mxPoint x="1380" y="1310" />
              <mxPoint x="590" y="1310" />
            </Array>
          </mxGeometry>
        </mxCell>
        <mxCell id="cdySZ4cRYepUSvJREWyh-31" value="Y-a-t-il encore des recettes ?" style="rhombus;whiteSpace=wrap;html=1;" parent="WIyWlLk6GJQsqaUBKTNV-1" vertex="1">
          <mxGeometry x="1340" y="1120" width="80" height="80" as="geometry" />
        </mxCell>
        <mxCell id="cdySZ4cRYepUSvJREWyh-47" style="edgeStyle=orthogonalEdgeStyle;rounded=0;orthogonalLoop=1;jettySize=auto;html=1;entryX=0.5;entryY=0;entryDx=0;entryDy=0;" parent="WIyWlLk6GJQsqaUBKTNV-1" source="cdySZ4cRYepUSvJREWyh-38" target="cdySZ4cRYepUSvJREWyh-41" edge="1">
          <mxGeometry relative="1" as="geometry" />
        </mxCell>
        <mxCell id="cdySZ4cRYepUSvJREWyh-38" value="Saisie des caractères dans le champ ustensile/ingrédients/appareils" style="rounded=1;whiteSpace=wrap;html=1;" parent="WIyWlLk6GJQsqaUBKTNV-1" vertex="1">
          <mxGeometry x="853" y="920" width="190" height="60" as="geometry" />
        </mxCell>
        <mxCell id="cdySZ4cRYepUSvJREWyh-49" value="non" style="edgeStyle=orthogonalEdgeStyle;rounded=0;orthogonalLoop=1;jettySize=auto;html=1;entryX=0.5;entryY=0;entryDx=0;entryDy=0;" parent="WIyWlLk6GJQsqaUBKTNV-1" source="cdySZ4cRYepUSvJREWyh-41" target="cdySZ4cRYepUSvJREWyh-48" edge="1">
          <mxGeometry relative="1" as="geometry" />
        </mxCell>
        <mxCell id="cdySZ4cRYepUSvJREWyh-52" style="edgeStyle=orthogonalEdgeStyle;rounded=0;orthogonalLoop=1;jettySize=auto;html=1;" parent="WIyWlLk6GJQsqaUBKTNV-1" source="cdySZ4cRYepUSvJREWyh-41" target="cdySZ4cRYepUSvJREWyh-51" edge="1">
          <mxGeometry relative="1" as="geometry" />
        </mxCell>
        <mxCell id="cdySZ4cRYepUSvJREWyh-41" value="Les caractères saisies sont présent dans la liste des u/i/a ?" style="rhombus;whiteSpace=wrap;html=1;" parent="WIyWlLk6GJQsqaUBKTNV-1" vertex="1">
          <mxGeometry x="908" y="1010" width="80" height="80" as="geometry" />
        </mxCell>
        <mxCell id="cdySZ4cRYepUSvJREWyh-45" value="Met à jour la liste des u/i/a avec les u/i/a de la recettes" style="rounded=1;whiteSpace=wrap;html=1;fillColor=#ffe6cc;strokeColor=#d79b00;" parent="WIyWlLk6GJQsqaUBKTNV-1" vertex="1">
          <mxGeometry x="740" y="1130" width="120" height="60" as="geometry" />
        </mxCell>
        <mxCell id="cdySZ4cRYepUSvJREWyh-46" value="Fin" style="ellipse;whiteSpace=wrap;html=1;aspect=fixed;" parent="WIyWlLk6GJQsqaUBKTNV-1" vertex="1">
          <mxGeometry x="140" y="115" width="80" height="80" as="geometry" />
        </mxCell>
        <mxCell id="cdySZ4cRYepUSvJREWyh-48" value="le mot clé est supprimé de la liste u/i/a" style="rounded=1;whiteSpace=wrap;html=1;" parent="WIyWlLk6GJQsqaUBKTNV-1" vertex="1">
          <mxGeometry x="888" y="1160" width="120" height="60" as="geometry" />
        </mxCell>
        <mxCell id="cdySZ4cRYepUSvJREWyh-51" value="Fin" style="ellipse;whiteSpace=wrap;html=1;aspect=fixed;" parent="WIyWlLk6GJQsqaUBKTNV-1" vertex="1">
          <mxGeometry x="1040" y="1010" width="80" height="80" as="geometry" />
        </mxCell>
        <mxCell id="cdySZ4cRYepUSvJREWyh-55" style="edgeStyle=orthogonalEdgeStyle;rounded=0;orthogonalLoop=1;jettySize=auto;html=1;exitX=0.5;exitY=1;exitDx=0;exitDy=0;" parent="WIyWlLk6GJQsqaUBKTNV-1" source="NOl4RQN3VNLltnecCaYU-1" target="yxe5Q3Sf5L_R0xSFJ02G-1" edge="1">
          <mxGeometry relative="1" as="geometry">
            <mxPoint x="880" y="440" as="targetPoint" />
            <Array as="points">
              <mxPoint x="1580" y="90" />
              <mxPoint x="410" y="90" />
            </Array>
          </mxGeometry>
        </mxCell>
        <mxCell id="NOl4RQN3VNLltnecCaYU-2" style="edgeStyle=orthogonalEdgeStyle;rounded=0;orthogonalLoop=1;jettySize=auto;html=1;" parent="WIyWlLk6GJQsqaUBKTNV-1" source="cdySZ4cRYepUSvJREWyh-53" target="NOl4RQN3VNLltnecCaYU-1" edge="1">
          <mxGeometry relative="1" as="geometry" />
        </mxCell>
        <mxCell id="cdySZ4cRYepUSvJREWyh-53" value="Le tag s&#39;affiche sous le champs de recherche" style="rounded=1;whiteSpace=wrap;html=1;" parent="WIyWlLk6GJQsqaUBKTNV-1" vertex="1">
          <mxGeometry x="1370" y="10" width="120" height="60" as="geometry" />
        </mxCell>
        <mxCell id="cdySZ4cRYepUSvJREWyh-57" value="non" style="edgeStyle=orthogonalEdgeStyle;rounded=0;orthogonalLoop=1;jettySize=auto;html=1;exitX=0.5;exitY=1;exitDx=0;exitDy=0;" parent="WIyWlLk6GJQsqaUBKTNV-1" source="yxe5Q3Sf5L_R0xSFJ02G-13" target="cdySZ4cRYepUSvJREWyh-13" edge="1">
          <mxGeometry relative="1" as="geometry">
            <Array as="points">
              <mxPoint x="740" y="1100" />
              <mxPoint x="590" y="1100" />
            </Array>
          </mxGeometry>
        </mxCell>
        <mxCell id="cdySZ4cRYepUSvJREWyh-59" value="oui" style="edgeStyle=orthogonalEdgeStyle;rounded=0;orthogonalLoop=1;jettySize=auto;html=1;entryX=0.5;entryY=0;entryDx=0;entryDy=0;" parent="WIyWlLk6GJQsqaUBKTNV-1" source="cdySZ4cRYepUSvJREWyh-56" target="cdySZ4cRYepUSvJREWyh-58" edge="1">
          <mxGeometry relative="1" as="geometry" />
        </mxCell>
        <mxCell id="cdySZ4cRYepUSvJREWyh-56" value="il n&#39;y a pas de recette sélectionné" style="rhombus;whiteSpace=wrap;html=1;" parent="WIyWlLk6GJQsqaUBKTNV-1" vertex="1">
          <mxGeometry x="240" y="1140" width="80" height="80" as="geometry" />
        </mxCell>
        <mxCell id="cdySZ4cRYepUSvJREWyh-58" value="On affiche &quot;Aucune recette ne correspond à votre critère...&quot;" style="rounded=1;whiteSpace=wrap;html=1;" parent="WIyWlLk6GJQsqaUBKTNV-1" vertex="1">
          <mxGeometry x="220" y="1260" width="120" height="60" as="geometry" />
        </mxCell>
        <mxCell id="cdySZ4cRYepUSvJREWyh-61" style="edgeStyle=orthogonalEdgeStyle;rounded=0;orthogonalLoop=1;jettySize=auto;html=1;" parent="WIyWlLk6GJQsqaUBKTNV-1" source="cdySZ4cRYepUSvJREWyh-60" target="cdySZ4cRYepUSvJREWyh-22" edge="1">
          <mxGeometry relative="1" as="geometry" />
        </mxCell>
        <mxCell id="cdySZ4cRYepUSvJREWyh-60" value="On sélectionne toutes les recettes" style="rounded=1;whiteSpace=wrap;html=1;" parent="WIyWlLk6GJQsqaUBKTNV-1" vertex="1">
          <mxGeometry x="1500" y="840" width="120" height="60" as="geometry" />
        </mxCell>
        <mxCell id="NOl4RQN3VNLltnecCaYU-1" value="Ajout du tag à la liste des tag (u/i/a)" style="rounded=1;whiteSpace=wrap;html=1;" parent="WIyWlLk6GJQsqaUBKTNV-1" vertex="1">
          <mxGeometry x="1520" y="10" width="120" height="60" as="geometry" />
        </mxCell>
      </root>
    </mxGraphModel>
  </diagram>
  <diagram id="nk2pEa_GbqhVmNqTN2R6" name="Correction">
    <mxGraphModel dx="1050" dy="1710" grid="1" gridSize="10" guides="1" tooltips="1" connect="1" arrows="1" fold="1" page="1" pageScale="1" pageWidth="827" pageHeight="1169" math="0" shadow="0">
      <root>
        <mxCell id="0" />
        <mxCell id="1" parent="0" />
        <mxCell id="IetPNSm8LOVnldIw3182-96" value="Recherche" style="rounded=0;whiteSpace=wrap;html=1;fillColor=none;dashed=1;dashPattern=8 8;align=left;labelPosition=center;verticalLabelPosition=top;verticalAlign=bottom;fontStyle=1" parent="1" vertex="1">
          <mxGeometry x="210" y="80" width="820" height="1590" as="geometry" />
        </mxCell>
        <mxCell id="IetPNSm8LOVnldIw3182-1" value="L&#39;utilisateur saisie dans le champs de recherche" style="rounded=1;whiteSpace=wrap;html=1;" parent="1" vertex="1">
          <mxGeometry x="340" y="-190" width="120" height="60" as="geometry" />
        </mxCell>
        <mxCell id="IetPNSm8LOVnldIw3182-7" value="" style="endArrow=classic;html=1;rounded=0;exitX=0.5;exitY=1;exitDx=0;exitDy=0;entryX=0.5;entryY=0;entryDx=0;entryDy=0;edgeStyle=orthogonalEdgeStyle;" parent="1" source="Bassm5ZC7DTCSZN9C_kq-1" target="IetPNSm8LOVnldIw3182-14" edge="1">
          <mxGeometry width="50" height="50" relative="1" as="geometry">
            <mxPoint x="390" y="250" as="sourcePoint" />
            <mxPoint x="440" y="200" as="targetPoint" />
          </mxGeometry>
        </mxCell>
        <mxCell id="Bassm5ZC7DTCSZN9C_kq-3" value="oui" style="edgeLabel;html=1;align=center;verticalAlign=middle;resizable=0;points=[];" vertex="1" connectable="0" parent="IetPNSm8LOVnldIw3182-7">
          <mxGeometry x="-0.1646" y="-1" relative="1" as="geometry">
            <mxPoint as="offset" />
          </mxGeometry>
        </mxCell>
        <mxCell id="IetPNSm8LOVnldIw3182-8" value="oui" style="edgeStyle=orthogonalEdgeStyle;rounded=0;orthogonalLoop=1;jettySize=auto;html=1;entryX=0.5;entryY=0;entryDx=0;entryDy=0;" parent="1" source="IetPNSm8LOVnldIw3182-12" target="IetPNSm8LOVnldIw3182-79" edge="1">
          <mxGeometry relative="1" as="geometry">
            <Array as="points">
              <mxPoint x="740" y="370" />
              <mxPoint x="740" y="775" />
            </Array>
          </mxGeometry>
        </mxCell>
        <mxCell id="IetPNSm8LOVnldIw3182-9" value="Oui" style="edgeLabel;html=1;align=center;verticalAlign=middle;resizable=0;points=[];" parent="IetPNSm8LOVnldIw3182-8" vertex="1" connectable="0">
          <mxGeometry x="0.0642" y="-4" relative="1" as="geometry">
            <mxPoint as="offset" />
          </mxGeometry>
        </mxCell>
        <mxCell id="IetPNSm8LOVnldIw3182-10" style="edgeStyle=orthogonalEdgeStyle;rounded=0;orthogonalLoop=1;jettySize=auto;html=1;entryX=0.5;entryY=0;entryDx=0;entryDy=0;exitX=0.5;exitY=1;exitDx=0;exitDy=0;" parent="1" source="IetPNSm8LOVnldIw3182-12" target="IetPNSm8LOVnldIw3182-22" edge="1">
          <mxGeometry relative="1" as="geometry" />
        </mxCell>
        <mxCell id="IetPNSm8LOVnldIw3182-11" value="Non" style="edgeLabel;html=1;align=center;verticalAlign=middle;resizable=0;points=[];" parent="IetPNSm8LOVnldIw3182-10" vertex="1" connectable="0">
          <mxGeometry x="0.1925" y="-1" relative="1" as="geometry">
            <mxPoint as="offset" />
          </mxGeometry>
        </mxCell>
        <mxCell id="IetPNSm8LOVnldIw3182-12" value="Le titre contient les caractères saisis ?" style="rhombus;whiteSpace=wrap;html=1;" parent="1" vertex="1">
          <mxGeometry x="490" y="325" width="100" height="90" as="geometry" />
        </mxCell>
        <mxCell id="IetPNSm8LOVnldIw3182-13" value="oui" style="edgeStyle=orthogonalEdgeStyle;rounded=0;orthogonalLoop=1;jettySize=auto;html=1;" parent="1" source="IetPNSm8LOVnldIw3182-6" target="IetPNSm8LOVnldIw3182-12" edge="1">
          <mxGeometry relative="1" as="geometry" />
        </mxCell>
        <mxCell id="IetPNSm8LOVnldIw3182-14" value="Aller à la recette suivante" style="rounded=1;whiteSpace=wrap;html=1;" parent="1" vertex="1">
          <mxGeometry x="480" y="100" width="120" height="60" as="geometry" />
        </mxCell>
        <mxCell id="IetPNSm8LOVnldIw3182-16" style="edgeStyle=orthogonalEdgeStyle;rounded=0;orthogonalLoop=1;jettySize=auto;html=1;entryX=0.5;entryY=0;entryDx=0;entryDy=0;" parent="1" source="IetPNSm8LOVnldIw3182-17" target="IetPNSm8LOVnldIw3182-61" edge="1">
          <mxGeometry relative="1" as="geometry">
            <mxPoint x="740" y="1220" as="targetPoint" />
          </mxGeometry>
        </mxCell>
        <mxCell id="IetPNSm8LOVnldIw3182-17" value="On ajoute la recette à la liste des recettes sélectionnées" style="rounded=1;whiteSpace=wrap;html=1;" parent="1" vertex="1">
          <mxGeometry x="850" y="1190" width="120" height="60" as="geometry" />
        </mxCell>
        <mxCell id="IetPNSm8LOVnldIw3182-18" style="edgeStyle=orthogonalEdgeStyle;rounded=0;orthogonalLoop=1;jettySize=auto;html=1;entryX=0.5;entryY=0;entryDx=0;entryDy=0;" parent="1" source="IetPNSm8LOVnldIw3182-22" target="IetPNSm8LOVnldIw3182-79" edge="1">
          <mxGeometry relative="1" as="geometry" />
        </mxCell>
        <mxCell id="IetPNSm8LOVnldIw3182-19" value="Oui" style="edgeLabel;html=1;align=center;verticalAlign=middle;resizable=0;points=[];" parent="IetPNSm8LOVnldIw3182-18" vertex="1" connectable="0">
          <mxGeometry x="-0.3467" relative="1" as="geometry">
            <mxPoint as="offset" />
          </mxGeometry>
        </mxCell>
        <mxCell id="IetPNSm8LOVnldIw3182-20" style="edgeStyle=orthogonalEdgeStyle;rounded=0;orthogonalLoop=1;jettySize=auto;html=1;entryX=0.5;entryY=0;entryDx=0;entryDy=0;" parent="1" source="IetPNSm8LOVnldIw3182-22" target="IetPNSm8LOVnldIw3182-24" edge="1">
          <mxGeometry relative="1" as="geometry">
            <Array as="points">
              <mxPoint x="540" y="570" />
              <mxPoint x="540" y="570" />
            </Array>
          </mxGeometry>
        </mxCell>
        <mxCell id="IetPNSm8LOVnldIw3182-21" value="Non" style="edgeLabel;html=1;align=center;verticalAlign=middle;resizable=0;points=[];" parent="IetPNSm8LOVnldIw3182-20" vertex="1" connectable="0">
          <mxGeometry x="-0.2198" y="-1" relative="1" as="geometry">
            <mxPoint as="offset" />
          </mxGeometry>
        </mxCell>
        <mxCell id="IetPNSm8LOVnldIw3182-22" value="La description contient les caractères saisis ?" style="rhombus;whiteSpace=wrap;html=1;" parent="1" vertex="1">
          <mxGeometry x="490" y="460" width="100" height="90" as="geometry" />
        </mxCell>
        <mxCell id="IetPNSm8LOVnldIw3182-23" style="edgeStyle=orthogonalEdgeStyle;rounded=0;orthogonalLoop=1;jettySize=auto;html=1;entryX=0.5;entryY=0;entryDx=0;entryDy=0;" parent="1" source="IetPNSm8LOVnldIw3182-24" target="IetPNSm8LOVnldIw3182-29" edge="1">
          <mxGeometry relative="1" as="geometry" />
        </mxCell>
        <mxCell id="IetPNSm8LOVnldIw3182-24" value="Aller à l&#39;ingrédient suivant de la recette" style="rounded=1;whiteSpace=wrap;html=1;" parent="1" vertex="1">
          <mxGeometry x="480" y="585" width="120" height="60" as="geometry" />
        </mxCell>
        <mxCell id="IetPNSm8LOVnldIw3182-25" style="edgeStyle=orthogonalEdgeStyle;rounded=0;orthogonalLoop=1;jettySize=auto;html=1;entryX=0.5;entryY=0;entryDx=0;entryDy=0;" parent="1" source="IetPNSm8LOVnldIw3182-29" target="IetPNSm8LOVnldIw3182-79" edge="1">
          <mxGeometry relative="1" as="geometry">
            <Array as="points">
              <mxPoint x="740" y="715" />
            </Array>
          </mxGeometry>
        </mxCell>
        <mxCell id="IetPNSm8LOVnldIw3182-26" value="Oui" style="edgeLabel;html=1;align=center;verticalAlign=middle;resizable=0;points=[];" parent="IetPNSm8LOVnldIw3182-25" vertex="1" connectable="0">
          <mxGeometry x="-0.5344" y="1" relative="1" as="geometry">
            <mxPoint as="offset" />
          </mxGeometry>
        </mxCell>
        <mxCell id="IetPNSm8LOVnldIw3182-89" value="non" style="edgeStyle=orthogonalEdgeStyle;rounded=0;orthogonalLoop=1;jettySize=auto;html=1;entryX=0.5;entryY=0;entryDx=0;entryDy=0;" parent="1" source="IetPNSm8LOVnldIw3182-29" target="IetPNSm8LOVnldIw3182-32" edge="1">
          <mxGeometry relative="1" as="geometry" />
        </mxCell>
        <mxCell id="IetPNSm8LOVnldIw3182-29" value="L&#39;ingrédient contient les caractères saisis ?" style="rhombus;whiteSpace=wrap;html=1;" parent="1" vertex="1">
          <mxGeometry x="490" y="670" width="100" height="90" as="geometry" />
        </mxCell>
        <mxCell id="IetPNSm8LOVnldIw3182-30" value="oui" style="edgeStyle=orthogonalEdgeStyle;rounded=0;orthogonalLoop=1;jettySize=auto;html=1;entryX=0;entryY=0.5;entryDx=0;entryDy=0;" parent="1" source="IetPNSm8LOVnldIw3182-32" target="IetPNSm8LOVnldIw3182-24" edge="1">
          <mxGeometry relative="1" as="geometry">
            <Array as="points">
              <mxPoint x="390" y="840" />
              <mxPoint x="390" y="615" />
            </Array>
          </mxGeometry>
        </mxCell>
        <mxCell id="IetPNSm8LOVnldIw3182-31" value="Non" style="edgeStyle=orthogonalEdgeStyle;rounded=0;orthogonalLoop=1;jettySize=auto;html=1;" parent="1" source="IetPNSm8LOVnldIw3182-32" target="IetPNSm8LOVnldIw3182-36" edge="1">
          <mxGeometry relative="1" as="geometry" />
        </mxCell>
        <mxCell id="IetPNSm8LOVnldIw3182-32" value="Y-a-t-il encore des ingredients ?" style="rhombus;whiteSpace=wrap;html=1;" parent="1" vertex="1">
          <mxGeometry x="500" y="800" width="80" height="80" as="geometry" />
        </mxCell>
        <mxCell id="IetPNSm8LOVnldIw3182-33" value="Oui" style="edgeStyle=orthogonalEdgeStyle;rounded=0;orthogonalLoop=1;jettySize=auto;html=1;entryX=0;entryY=0.5;entryDx=0;entryDy=0;" parent="1" source="IetPNSm8LOVnldIw3182-36" target="IetPNSm8LOVnldIw3182-14" edge="1">
          <mxGeometry relative="1" as="geometry">
            <Array as="points">
              <mxPoint x="260" y="960" />
              <mxPoint x="260" y="130" />
            </Array>
          </mxGeometry>
        </mxCell>
        <mxCell id="IetPNSm8LOVnldIw3182-34" style="edgeStyle=orthogonalEdgeStyle;rounded=0;orthogonalLoop=1;jettySize=auto;html=1;entryX=0.5;entryY=0;entryDx=0;entryDy=0;exitX=0.5;exitY=1;exitDx=0;exitDy=0;" parent="1" source="IetPNSm8LOVnldIw3182-36" target="IetPNSm8LOVnldIw3182-70" edge="1">
          <mxGeometry relative="1" as="geometry">
            <Array as="points">
              <mxPoint x="540" y="1050" />
              <mxPoint x="280" y="1050" />
            </Array>
          </mxGeometry>
        </mxCell>
        <mxCell id="IetPNSm8LOVnldIw3182-35" value="Non" style="edgeLabel;html=1;align=center;verticalAlign=middle;resizable=0;points=[];" parent="IetPNSm8LOVnldIw3182-34" vertex="1" connectable="0">
          <mxGeometry x="-0.7777" relative="1" as="geometry">
            <mxPoint as="offset" />
          </mxGeometry>
        </mxCell>
        <mxCell id="IetPNSm8LOVnldIw3182-36" value="Y-a-t-il encore des recettes ?" style="rhombus;whiteSpace=wrap;html=1;" parent="1" vertex="1">
          <mxGeometry x="500" y="920" width="80" height="80" as="geometry" />
        </mxCell>
        <mxCell id="IetPNSm8LOVnldIw3182-94" style="edgeStyle=orthogonalEdgeStyle;rounded=0;orthogonalLoop=1;jettySize=auto;html=1;entryX=0.5;entryY=0;entryDx=0;entryDy=0;" parent="1" source="IetPNSm8LOVnldIw3182-39" target="IetPNSm8LOVnldIw3182-1" edge="1">
          <mxGeometry relative="1" as="geometry" />
        </mxCell>
        <mxCell id="IetPNSm8LOVnldIw3182-99" style="edgeStyle=orthogonalEdgeStyle;rounded=0;orthogonalLoop=1;jettySize=auto;html=1;entryX=0.5;entryY=0;entryDx=0;entryDy=0;" parent="1" source="IetPNSm8LOVnldIw3182-39" target="IetPNSm8LOVnldIw3182-97" edge="1">
          <mxGeometry relative="1" as="geometry" />
        </mxCell>
        <mxCell id="IetPNSm8LOVnldIw3182-100" style="edgeStyle=orthogonalEdgeStyle;rounded=0;orthogonalLoop=1;jettySize=auto;html=1;entryX=0.5;entryY=0;entryDx=0;entryDy=0;" parent="1" source="IetPNSm8LOVnldIw3182-39" target="IetPNSm8LOVnldIw3182-42" edge="1">
          <mxGeometry relative="1" as="geometry" />
        </mxCell>
        <mxCell id="IetPNSm8LOVnldIw3182-39" value="Utilisateur" style="shape=umlActor;verticalLabelPosition=bottom;verticalAlign=top;html=1;outlineConnect=0;" parent="1" vertex="1">
          <mxGeometry x="468" y="-280" width="30" height="60" as="geometry" />
        </mxCell>
        <mxCell id="IetPNSm8LOVnldIw3182-40" value="On met à jour la liste des recettes sélectionnées" style="rounded=1;whiteSpace=wrap;html=1;fillColor=#d5e8d4;strokeColor=#82b366;" parent="1" vertex="1">
          <mxGeometry x="670" y="1360" width="120" height="60" as="geometry" />
        </mxCell>
        <mxCell id="IetPNSm8LOVnldIw3182-92" style="edgeStyle=orthogonalEdgeStyle;rounded=0;orthogonalLoop=1;jettySize=auto;html=1;entryX=0.5;entryY=0;entryDx=0;entryDy=0;" parent="1" source="IetPNSm8LOVnldIw3182-42" target="IetPNSm8LOVnldIw3182-67" edge="1">
          <mxGeometry relative="1" as="geometry" />
        </mxCell>
        <mxCell id="IetPNSm8LOVnldIw3182-42" value="Sélectionne un ustensile/ingrédients/appareils (u/i/a)" style="rounded=1;whiteSpace=wrap;html=1;" parent="1" vertex="1">
          <mxGeometry x="540" y="-210" width="190" height="60" as="geometry" />
        </mxCell>
        <mxCell id="IetPNSm8LOVnldIw3182-77" value="oui" style="edgeStyle=orthogonalEdgeStyle;rounded=0;orthogonalLoop=1;jettySize=auto;html=1;entryX=0.5;entryY=0;entryDx=0;entryDy=0;" parent="1" source="IetPNSm8LOVnldIw3182-51" target="IetPNSm8LOVnldIw3182-83" edge="1">
          <mxGeometry relative="1" as="geometry" />
        </mxCell>
        <mxCell id="IetPNSm8LOVnldIw3182-78" value="non" style="edgeStyle=orthogonalEdgeStyle;rounded=0;orthogonalLoop=1;jettySize=auto;html=1;entryX=1;entryY=0.5;entryDx=0;entryDy=0;" parent="1" source="IetPNSm8LOVnldIw3182-51" target="IetPNSm8LOVnldIw3182-36" edge="1">
          <mxGeometry relative="1" as="geometry" />
        </mxCell>
        <mxCell id="IetPNSm8LOVnldIw3182-51" value="L&#39;u/i/a du tag est-il présent dans la liste des u/i/a de la recette ?" style="rhombus;whiteSpace=wrap;html=1;" parent="1" vertex="1">
          <mxGeometry x="690" y="970" width="100" height="90" as="geometry" />
        </mxCell>
        <mxCell id="IetPNSm8LOVnldIw3182-61" value="Met à jour la liste des u/i/a avec les u/i/a de la recettes" style="rounded=1;whiteSpace=wrap;html=1;fillColor=#ffe6cc;strokeColor=#d79b00;" parent="1" vertex="1">
          <mxGeometry x="850" y="1360" width="120" height="60" as="geometry" />
        </mxCell>
        <mxCell id="IetPNSm8LOVnldIw3182-66" style="edgeStyle=orthogonalEdgeStyle;rounded=0;orthogonalLoop=1;jettySize=auto;html=1;" parent="1" source="IetPNSm8LOVnldIw3182-67" target="IetPNSm8LOVnldIw3182-74" edge="1">
          <mxGeometry relative="1" as="geometry" />
        </mxCell>
        <mxCell id="IetPNSm8LOVnldIw3182-67" value="Le tag s&#39;affiche sous le champs de recherche" style="rounded=1;whiteSpace=wrap;html=1;" parent="1" vertex="1">
          <mxGeometry x="575" y="-130" width="120" height="60" as="geometry" />
        </mxCell>
        <mxCell id="IetPNSm8LOVnldIw3182-68" value="non" style="edgeStyle=orthogonalEdgeStyle;rounded=0;orthogonalLoop=1;jettySize=auto;html=1;exitX=0.5;exitY=1;exitDx=0;exitDy=0;entryX=0.5;entryY=0;entryDx=0;entryDy=0;" parent="1" source="IetPNSm8LOVnldIw3182-17" target="IetPNSm8LOVnldIw3182-40" edge="1">
          <mxGeometry relative="1" as="geometry">
            <Array as="points">
              <mxPoint x="910" y="1280" />
              <mxPoint x="730" y="1280" />
            </Array>
          </mxGeometry>
        </mxCell>
        <mxCell id="IetPNSm8LOVnldIw3182-69" value="oui" style="edgeStyle=orthogonalEdgeStyle;rounded=0;orthogonalLoop=1;jettySize=auto;html=1;entryX=0.5;entryY=0;entryDx=0;entryDy=0;" parent="1" source="IetPNSm8LOVnldIw3182-70" target="IetPNSm8LOVnldIw3182-71" edge="1">
          <mxGeometry relative="1" as="geometry" />
        </mxCell>
        <mxCell id="IetPNSm8LOVnldIw3182-70" value="il n&#39;y a pas de recette sélectionné" style="rhombus;whiteSpace=wrap;html=1;" parent="1" vertex="1">
          <mxGeometry x="240" y="1140" width="80" height="80" as="geometry" />
        </mxCell>
        <mxCell id="IetPNSm8LOVnldIw3182-71" value="On affiche &quot;Aucune recette ne correspond à votre critère...&quot;" style="rounded=1;whiteSpace=wrap;html=1;" parent="1" vertex="1">
          <mxGeometry x="220" y="1260" width="120" height="60" as="geometry" />
        </mxCell>
        <mxCell id="IetPNSm8LOVnldIw3182-76" value="" style="edgeStyle=orthogonalEdgeStyle;rounded=0;orthogonalLoop=1;jettySize=auto;html=1;" parent="1" source="IetPNSm8LOVnldIw3182-75" target="IetPNSm8LOVnldIw3182-51" edge="1">
          <mxGeometry relative="1" as="geometry" />
        </mxCell>
        <mxCell id="IetPNSm8LOVnldIw3182-75" value="Aller au tag i/a/u suivant" style="rounded=1;whiteSpace=wrap;html=1;" parent="1" vertex="1">
          <mxGeometry x="680" y="890" width="120" height="60" as="geometry" />
        </mxCell>
        <mxCell id="IetPNSm8LOVnldIw3182-80" value="oui" style="edgeStyle=orthogonalEdgeStyle;rounded=0;orthogonalLoop=1;jettySize=auto;html=1;entryX=0.5;entryY=0;entryDx=0;entryDy=0;" parent="1" source="IetPNSm8LOVnldIw3182-79" target="IetPNSm8LOVnldIw3182-75" edge="1">
          <mxGeometry relative="1" as="geometry" />
        </mxCell>
        <mxCell id="IetPNSm8LOVnldIw3182-81" value="non" style="edgeStyle=orthogonalEdgeStyle;rounded=0;orthogonalLoop=1;jettySize=auto;html=1;" parent="1" source="IetPNSm8LOVnldIw3182-79" target="IetPNSm8LOVnldIw3182-17" edge="1">
          <mxGeometry relative="1" as="geometry" />
        </mxCell>
        <mxCell id="IetPNSm8LOVnldIw3182-79" value="Y-a-t-il des tag sél&quot;ctionnés ?" style="rhombus;whiteSpace=wrap;html=1;" parent="1" vertex="1">
          <mxGeometry x="690" y="770" width="100" height="90" as="geometry" />
        </mxCell>
        <mxCell id="IetPNSm8LOVnldIw3182-84" style="edgeStyle=orthogonalEdgeStyle;rounded=0;orthogonalLoop=1;jettySize=auto;html=1;entryX=1;entryY=0.5;entryDx=0;entryDy=0;" parent="1" source="IetPNSm8LOVnldIw3182-83" target="IetPNSm8LOVnldIw3182-75" edge="1">
          <mxGeometry relative="1" as="geometry">
            <Array as="points">
              <mxPoint x="820" y="1150" />
              <mxPoint x="820" y="920" />
            </Array>
          </mxGeometry>
        </mxCell>
        <mxCell id="IetPNSm8LOVnldIw3182-85" value="non" style="edgeStyle=orthogonalEdgeStyle;rounded=0;orthogonalLoop=1;jettySize=auto;html=1;entryX=0;entryY=0.5;entryDx=0;entryDy=0;" parent="1" source="IetPNSm8LOVnldIw3182-83" target="IetPNSm8LOVnldIw3182-17" edge="1">
          <mxGeometry relative="1" as="geometry">
            <Array as="points">
              <mxPoint x="740" y="1220" />
            </Array>
          </mxGeometry>
        </mxCell>
        <mxCell id="IetPNSm8LOVnldIw3182-83" value="Y-a-t-il encore des tags ?" style="rhombus;whiteSpace=wrap;html=1;" parent="1" vertex="1">
          <mxGeometry x="700" y="1110" width="80" height="80" as="geometry" />
        </mxCell>
        <mxCell id="IetPNSm8LOVnldIw3182-86" value="" style="edgeStyle=orthogonalEdgeStyle;rounded=0;orthogonalLoop=1;jettySize=auto;html=1;" parent="1" source="IetPNSm8LOVnldIw3182-14" target="IetPNSm8LOVnldIw3182-6" edge="1">
          <mxGeometry relative="1" as="geometry">
            <mxPoint x="540" y="160" as="sourcePoint" />
            <mxPoint x="540" y="325" as="targetPoint" />
          </mxGeometry>
        </mxCell>
        <mxCell id="IetPNSm8LOVnldIw3182-87" style="edgeStyle=orthogonalEdgeStyle;rounded=0;orthogonalLoop=1;jettySize=auto;html=1;" parent="1" source="IetPNSm8LOVnldIw3182-6" target="IetPNSm8LOVnldIw3182-79" edge="1">
          <mxGeometry relative="1" as="geometry">
            <Array as="points">
              <mxPoint x="770" y="245" />
            </Array>
          </mxGeometry>
        </mxCell>
        <mxCell id="IetPNSm8LOVnldIw3182-88" value="non" style="edgeLabel;html=1;align=center;verticalAlign=middle;resizable=0;points=[];" parent="IetPNSm8LOVnldIw3182-87" vertex="1" connectable="0">
          <mxGeometry x="-0.8746" y="-2" relative="1" as="geometry">
            <mxPoint x="1" as="offset" />
          </mxGeometry>
        </mxCell>
        <mxCell id="IetPNSm8LOVnldIw3182-6" value="plus que 3 caractères saisies ?" style="rhombus;whiteSpace=wrap;html=1;" parent="1" vertex="1">
          <mxGeometry x="490" y="200" width="100" height="90" as="geometry" />
        </mxCell>
        <mxCell id="IetPNSm8LOVnldIw3182-95" style="edgeStyle=orthogonalEdgeStyle;rounded=0;orthogonalLoop=1;jettySize=auto;html=1;exitX=0.5;exitY=1;exitDx=0;exitDy=0;" parent="1" source="IetPNSm8LOVnldIw3182-74" edge="1">
          <mxGeometry relative="1" as="geometry">
            <mxPoint x="540" y="100" as="targetPoint" />
            <Array as="points">
              <mxPoint x="635" y="40" />
              <mxPoint x="541" y="40" />
              <mxPoint x="541" y="100" />
            </Array>
          </mxGeometry>
        </mxCell>
        <mxCell id="IetPNSm8LOVnldIw3182-74" value="Ajout du tag à la liste des tag (u/i/a)" style="rounded=1;whiteSpace=wrap;html=1;" parent="1" vertex="1">
          <mxGeometry x="575" y="-40" width="120" height="60" as="geometry" />
        </mxCell>
        <mxCell id="IetPNSm8LOVnldIw3182-101" style="edgeStyle=orthogonalEdgeStyle;rounded=0;orthogonalLoop=1;jettySize=auto;html=1;entryX=0.5;entryY=0;entryDx=0;entryDy=0;" parent="1" source="IetPNSm8LOVnldIw3182-97" target="IetPNSm8LOVnldIw3182-98" edge="1">
          <mxGeometry relative="1" as="geometry" />
        </mxCell>
        <mxCell id="IetPNSm8LOVnldIw3182-97" value="suppression du tag u/i/a" style="rounded=1;whiteSpace=wrap;html=1;" parent="1" vertex="1">
          <mxGeometry x="770" y="-210" width="180" height="60" as="geometry" />
        </mxCell>
        <mxCell id="IetPNSm8LOVnldIw3182-102" style="edgeStyle=orthogonalEdgeStyle;rounded=0;orthogonalLoop=1;jettySize=auto;html=1;entryX=0.5;entryY=0;entryDx=0;entryDy=0;" parent="1" source="IetPNSm8LOVnldIw3182-98" target="IetPNSm8LOVnldIw3182-14" edge="1">
          <mxGeometry relative="1" as="geometry">
            <Array as="points">
              <mxPoint x="860" y="40" />
              <mxPoint x="540" y="40" />
            </Array>
          </mxGeometry>
        </mxCell>
        <mxCell id="IetPNSm8LOVnldIw3182-98" value="Supprimer le tag à la liste des tag (u/i/a)" style="rounded=1;whiteSpace=wrap;html=1;" parent="1" vertex="1">
          <mxGeometry x="800" y="-40" width="120" height="60" as="geometry" />
        </mxCell>
        <mxCell id="Bassm5ZC7DTCSZN9C_kq-2" value="" style="endArrow=classic;html=1;rounded=0;exitX=0.5;exitY=1;exitDx=0;exitDy=0;entryX=0.5;entryY=0;entryDx=0;entryDy=0;edgeStyle=orthogonalEdgeStyle;" edge="1" parent="1" source="IetPNSm8LOVnldIw3182-1" target="Bassm5ZC7DTCSZN9C_kq-1">
          <mxGeometry width="50" height="50" relative="1" as="geometry">
            <mxPoint x="400" y="-20" as="sourcePoint" />
            <mxPoint x="540" y="100" as="targetPoint" />
          </mxGeometry>
        </mxCell>
        <mxCell id="Bassm5ZC7DTCSZN9C_kq-5" value="non" style="edgeStyle=orthogonalEdgeStyle;rounded=0;orthogonalLoop=1;jettySize=auto;html=1;entryX=1;entryY=0.5;entryDx=0;entryDy=0;" edge="1" parent="1" source="Bassm5ZC7DTCSZN9C_kq-1" target="Bassm5ZC7DTCSZN9C_kq-4">
          <mxGeometry relative="1" as="geometry" />
        </mxCell>
        <mxCell id="Bassm5ZC7DTCSZN9C_kq-1" value="plus que 3 caractères saisies ?" style="rhombus;whiteSpace=wrap;html=1;" vertex="1" parent="1">
          <mxGeometry x="350" y="-110" width="100" height="90" as="geometry" />
        </mxCell>
        <mxCell id="Bassm5ZC7DTCSZN9C_kq-4" value="Stop" style="ellipse;whiteSpace=wrap;html=1;aspect=fixed;" vertex="1" parent="1">
          <mxGeometry x="170" y="-105" width="80" height="80" as="geometry" />
        </mxCell>
      </root>
    </mxGraphModel>
  </diagram>
</mxfile>
